<svg xmlns="http://www.w3.org/2000/svg" version="1.1" xmlns:xlink="http://www.w3.org/1999/xlink" xmlns:svgjs="http://svgjs.dev/svgjs" width="1500" height="1500" viewBox="0 0 1500 1500"><rect width="1500" height="1500" fill="#ffffff"></rect><g transform="matrix(0.6666666666666666,0,0,0.6666666666666666,248.44244080996884,189.33333333333348)"><svg viewBox="0 0 321 360" data-background-color="#1f2d5a" preserveAspectRatio="xMidYMid meet" height="1682" width="1500" xmlns="http://www.w3.org/2000/svg" xmlns:xlink="http://www.w3.org/1999/xlink"><g id="tight-bounds" transform="matrix(1,0,0,1,0.5000234999999975,0)"><svg viewBox="0 0 320 360" height="360" width="320"><g><svg></svg></g><g><svg viewBox="0 0 320 360" height="360" width="320"><g><path transform="translate(-74.99272,-51.79039) scale(4.65793,4.65793)" d="M20.6 59.9l0.8 1-0.4-1.3c-0.1-0.6-0.8 0.1-0.4 0.3M21.5 59.3c0.3 0.5 0.6 1 0.6 1.5 0 0.7 0.6 1 1.1 1.2-0.7-0.8-1.1-3-1.7-2.7M59.9 16.9c1.7 0 3.3-0.2 5.1 0.2 4.4 1.1 8.1 3.3 10.6 6.4l7 11.2c0.3 2.8 0.9 5.9 0.8 9.3 0.7 0 0.6-1 1.4-1.2-0.8 2-1.2 4.5-1.4 7.4-0.5-1.6 0-4 0.1-5.3-0.7 1.1-1.1 0.3-1.1-0.2 0.1-0.8-0.3-0.7-0.6-1-1.1-1-1.8-2.1-2.6-3.8 0.5-1.3 0.6-3.2-1-4.2-0.5-0.3-1.1-0.8-1.4-1.6-0.4-1.1-1.1-2.4-0.9-4.1 0.1-0.5-1.5 1.1-2.4 0.4-3.9-2.7-7.8-5.8-12.5-8.4-2.5 0-4.3-0.9-5.2-2-0.8-1-0.2-2.3 1-2.4 0.7 0 1.5-0.2 2.1 0.2 0.1-0.4 0.5-0.9 1-0.9M50 14.6l0.2 0.1c1 0.2 1.5 1.6 2.6 1.1 0 0.7 0.1 1.4-0.1 1.9-0.3 0.8-1.2 0.8-1.9 0.8-6.7-0.4-10.6 2.4-14.7 4.8-1.1 0.7-2.3 1.2-3.2 2.1-4.3 4-9 7.7-10.1 15.1l-0.9 8.2c-0.1 0.9-1.1 1.8-0.9 2.9l0.7 4.9c-0.7-0.7-1.1 0.2-0.9 0.6 0.1 0.3 0.5 1.3 1.1 0.4 0.8 1.5 1.6 4.4 2.7 5.7 3.4 4 7.8 7.6 11.4 11.2 0.9-0.2 1.6-0.2 1.8-0.8 0.3 0.6-0.3 1.2-0.8 1.3 1.6 1 3.4 1.9 5.8 2.1 3.1 0.2 6 0.7 8.7 1.4 1.4-0.4 2.8-0.6 4.3-0.7 0.5 0 0.8-0.8 1.4-1l0.1-1c0.6 0.9 0.5-0.3 0.1-0.9 0.7 0.6 0.9 1.1 1.2 1.5 0-0.3 0.8-1.4 0.8-0.1l0.2-1.3c0.3-0.2 0.4 1.1 0.7 0.2 0.3-0.9 0.9-0.2 1.5-0.5-0.2 0.4-0.1 1.2 0.6 0.7l0.8-0.7c0.5 1.2 1.3 0.7 1.7 0.5 4.4-2.8 8.8-6.1 13-9.4l-0.1 1.3 0.5-1.6c0.5 0.5 0.9 0.1 1.1-0.2 0.6-1 1.4-2 2.7-2.9-1.6 4.3-3.5 7.7-5.9 10.5l-1 1.2c0 0.7-0.2 1.6-1 1.7-0.4 0.1-1.2-0.2-1.8 0.4-0.3 0.4 0.7 1.2-0.1 0.6-0.7-0.5-1.4 0-2.2 0.2-0.6 0.2 0.4 0.8 0.6 1.2 0.2 0.4 0.4 0.8 0.3 1.3l-1.1-1.2c-1.3 0.7-2.1 2-3.2 3-0.5 0.4-0.3 1.1-0.3 1.7-0.7 0-1.5-0.2-1.9 0.2-0.3 0.4-0.2 1-0.2 1.6-1-0.1-1.1-1.6-2-1.3-0.9 0.2-1.9 0.3-2.7 0.8 0.6 1.2-1 0.5-0.8 0.7-1.5-0.9-2.8-1.6-4.4-1-3.4-1.1-7.6-0.6-10.7-0.2 0-0.5 0.1-1-0.1-1.1-0.2 0.5-0.8 0.3-0.7 0.3-1.9-1.3-3.8-2.1-5.8-3.2-1.8 0.2-3.5-0.7-4-1.2-1.4-1.3-3-0.6-4.3-0.9-2.8-0.7-3.8-3.6-4.1-5.6-0.2-1-1-1.4-1.3-1.3-1.3-4.2-3.3-8-4.9-11.9-0.4-1-0.3-2-0.3-3.1 0.5 0.2 1 0.1 0.9-0.6-0.5-3.3-1.7-5.8-3-8.2 0.7-3.4 0.8-7.4 2.4-10.4 1.4-2.7 4-4.1 5.8-6.4 0.6-0.8 0.6-1.9 1.2-2.6 2-2 4-4.1 6.2-5.9 1-0.8 2.2 0 3.7-0.3 0.5-1.8 2.5-3.4 4.4-2.9 0.8 0.2 2.4-1.9 2.9-2.1 0.8-0.3 0.4 0.8 0.4 1.5 1.9-1.5 4.5-2.3 6.9-3.2" fill="#000000" fill-rule="nonzero" stroke="none" stroke-width="1" stroke-linecap="butt" stroke-linejoin="miter" stroke-miterlimit="10" stroke-dasharray="" stroke-dashoffset="0" font-family="none" font-weight="none" font-size="none" text-anchor="none" style="mix-blend-mode: normal" data-fill-palette-color="tertiary"></path></g><g transform="matrix(1,0,0,1,64,108.31808230116818)"><svg viewBox="0 0 192 143.36383539766365" height="143.36383539766365" width="192"><g><svg viewBox="0 0 192 143.36383539766365" height="143.36383539766365" width="192"><g transform="matrix(1,0,0,1,0,96.44146460521463)"><svg viewBox="0 0 192 46.92237079244903" height="46.92237079244903" width="192"><g id="textblocktransform"><svg viewBox="0 0 192 46.92237079244903" height="46.92237079244903" width="192" id="textblock"><g><svg viewBox="0 0 192 46.92237079244903" height="46.92237079244903" width="192"><g transform="matrix(1,0,0,1,0,0)"><svg width="192" viewBox="1.2494772661541313 -27.830485985053926 169.59284980415833 41.44635181239169" height="46.92237079244903" data-palette-color="#fbfbfb"><path d="M7.697-13.561v0c0.565-0.181 1.102-0.276 1.61-0.285 0.502-0.007 0.769-0.015 0.8-0.026v0l0.21-0.329-1.849-5.11c-0.348-0.868-0.782-1.566-1.301-2.093-0.521-0.533-0.939-0.854-1.254-0.963v0l-0.495-0.104c-0.231-0.066-0.372-0.178-0.423-0.337v0c-0.151-0.47 0.406-1.257 1.668-2.362 1.269-1.107 2.317-1.793 3.142-2.057 0.819-0.263 1.316-0.229 1.492 0.099v0c0.503 1.022 1.24 3.047 2.21 6.075 0.969 3.022 1.85 6.009 2.642 8.961 0.795 2.959 1.783 6.282 2.966 9.971 1.183 3.688 2.16 5.93 2.934 6.725v0c0.198 0.181 0.328 0.367 0.389 0.558v0c0.153 0.476-0.45 0.932-1.809 1.368v0c-2.596 0.833-4.093 0.63-4.49-0.608v0c-0.224-0.481-0.506-1.252-0.847-2.312-0.34-1.06-0.873-3.073-1.6-6.04-0.719-2.962-1.329-5.227-1.832-6.795-0.501-1.562-1.535-2.091-3.103-1.588-1.568 0.503-2.467 1.803-2.699 3.9-0.237 2.099-0.061 4.066 0.527 5.901v0c1.248 3.892 2.852 5.523 4.814 4.893v0c0.286-0.092 0.545-0.234 0.777-0.427 0.236-0.202 0.386-0.313 0.45-0.333v0c0.254-0.081 0.502 0.014 0.743 0.286 0.248 0.271 0.423 0.565 0.524 0.882v0c0.346 1.079 0.21 2.128-0.409 3.146-0.619 1.018-1.544 1.724-2.776 2.118v0c-1.898 0.609-3.596 0.236-5.094-1.118-1.498-1.354-2.643-3.266-3.436-5.735v0c-1.004-3.13-1.194-6.279-0.571-9.446v0c0.336-1.571 1.023-2.967 2.059-4.189 1.037-1.221 2.38-2.097 4.031-2.626zM25.446-8.449v0l0.335 1.195c0.046 0.195 0.199 0.261 0.458 0.2v0c1.015-0.343 1.857-0.824 2.526-1.442 0.675-0.619 1.142-1.25 1.401-1.894v0c0.488-1.383 0.661-2.517 0.52-3.401v0l-0.09-0.595c-0.413-1.745-1.314-2.453-2.702-2.125v0c-1.038 0.246-1.771 0.896-2.2 1.95v0c-0.732 1.681-0.815 3.718-0.248 6.112zM37.552-4.504v0c0.29 1.226 0.295 2.359 0.014 3.398-0.288 1.041-0.694 1.857-1.219 2.447-0.526 0.584-1.18 1.105-1.962 1.565v0c-0.987 0.576-1.967 0.98-2.94 1.21v0c-2.712 0.642-4.957 0.099-6.737-1.63-1.774-1.731-3.035-4.176-3.783-7.336-0.747-3.153-0.614-6.147 0.399-8.984 1.021-2.832 3.134-4.627 6.339-5.386v0c2.913-0.69 5.126-0.139 6.64 1.653v0c0.605 0.672 0.99 1.358 1.156 2.059 0.164 0.694 0.262 1.25 0.292 1.668 0.03 0.418-0.053 1.078-0.25 1.981-0.197 0.903-0.541 1.752-1.031 2.546-0.495 0.802-1.371 1.661-2.627 2.575-1.25 0.913-2.79 1.685-4.62 2.318v0c-0.259 0.061-0.362 0.206-0.308 0.433v0c0.069 0.292 0.274 0.695 0.615 1.21 0.349 0.52 0.7 0.944 1.052 1.272v0c0.921 0.734 2.078 0.936 3.473 0.606v0c1.388-0.329 2.462-1.06 3.222-2.192v0c0.404-0.609 0.68-1.309 0.828-2.098v0c0.068-0.29 0.209-0.461 0.424-0.511 0.208-0.049 0.419 0.089 0.633 0.415 0.214 0.326 0.344 0.586 0.39 0.781zM43.458-12.184v0l0.247 1.217c0.032 0.197 0.179 0.275 0.442 0.232v0c1.037-0.269 1.912-0.686 2.624-1.254 0.719-0.568 1.23-1.164 1.535-1.787v0c0.587-1.344 0.842-2.462 0.766-3.354v0l-0.046-0.601c-0.285-1.77-1.132-2.542-2.541-2.315v0c-1.053 0.17-1.832 0.765-2.336 1.785v0c-0.853 1.623-1.083 3.649-0.691 6.077zM55.245-7.369v0c0.201 1.244 0.123 2.374-0.233 3.391-0.363 1.017-0.827 1.801-1.394 2.352-0.567 0.544-1.258 1.016-2.071 1.417v0c-1.026 0.503-2.033 0.834-3.02 0.994v0c-2.751 0.444-4.951-0.262-6.601-2.116-1.643-1.855-2.723-4.386-3.24-7.591-0.516-3.199-0.165-6.176 1.052-8.932 1.225-2.75 3.462-4.387 6.714-4.911v0c2.955-0.476 5.123 0.234 6.502 2.132v0c0.554 0.714 0.888 1.427 1.003 2.138 0.114 0.704 0.17 1.266 0.171 1.684 0 0.419-0.131 1.071-0.394 1.958-0.262 0.886-0.667 1.708-1.213 2.464-0.552 0.764-1.488 1.557-2.807 2.377-1.313 0.819-2.905 1.478-4.777 1.976v0c-0.263 0.042-0.376 0.179-0.339 0.409v0c0.048 0.296 0.223 0.714 0.526 1.252 0.311 0.544 0.629 0.992 0.956 1.345v0c0.865 0.799 2.005 1.085 3.42 0.857v0c1.408-0.227 2.533-0.878 3.373-1.952v0c0.447-0.579 0.773-1.256 0.979-2.032v0c0.089-0.284 0.242-0.444 0.459-0.479 0.211-0.034 0.411 0.119 0.601 0.46 0.19 0.341 0.301 0.61 0.333 0.807zM57.891-9.209v0c-0.212-3.347-0.407-6.097-0.586-8.25-0.179-2.153-0.496-4.197-0.952-6.132v0c-0.027-0.326 0.288-0.516 0.946-0.571 0.664-0.055 1.242-0.023 1.734 0.097 0.499 0.126 0.853 0.28 1.062 0.463v0c0.576 0.487 0.907 0.727 0.993 0.72 0.08-0.007 0.323-0.177 0.73-0.512v0c1.22-0.931 2.618-1.462 4.192-1.593 1.575-0.131 2.983 0.15 4.225 0.842 1.242 0.699 2.166 1.673 2.771 2.92v0c1.075 2.145 1.716 4.46 1.923 6.945v0c0.204 2.452-0.037 4.94-0.723 7.466v0c-0.388 1.37-1.028 2.517-1.921 3.441-0.886 0.923-1.977 1.439-3.273 1.547v0c-2.551 0.212-3.95-1.156-4.195-4.106v0c-0.066-0.797 0.067-1.21 0.398-1.238v0c0.066-0.006 0.265 0.055 0.597 0.181 0.324 0.12 0.636 0.168 0.936 0.143v0c2.352-0.196 3.32-2.785 2.905-7.768-0.415-4.983-1.881-7.369-4.399-7.159v0c-0.698 0.058-1.273 0.263-1.725 0.615-0.452 0.352-0.733 0.683-0.84 0.993v0l-0.158 0.515c-0.217 3.022 0.029 8.788 0.737 17.298v0c0.32 3.84 0.622 6.591 0.908 8.253 0.292 1.661 0.452 2.658 0.48 2.991 0.028 0.332-0.047 0.639-0.225 0.922v0c-0.593 0.912-1.423 1.754-2.489 2.525-1.072 0.778-2.037 1.203-2.894 1.274v0c-0.332 0.028-0.516-0.174-0.552-0.606v0c0.253-3.393 0.051-10.798-0.605-22.216zM94.962-1.602v0c-0.338 0.227-0.59 0.338-0.757 0.335v0c-0.36-0.007-0.604-0.162-0.731-0.465v0c-0.96-2.013-1.739-4.723-2.337-8.128v0c-0.031-0.134-0.079-0.202-0.146-0.203v0l-0.294 0.194c-0.932 1.575-2.001 3.034-3.208 4.377-1.207 1.336-2.183 2.28-2.928 2.831v0l-1.107 0.828c-0.339 0.293-0.609 0.438-0.808 0.434v0c-0.367-0.007-0.613-0.179-0.74-0.515v0c-0.705-1.414-1.497-4.141-2.377-8.179v0l-0.409-2.049c-0.574-2.939-1.167-5.294-1.778-7.067-0.611-1.779-1.08-2.819-1.408-3.119v0l-0.491-0.46c-0.298-0.106-0.445-0.276-0.44-0.509v0c0.009-0.467 0.709-0.953 2.1-1.458 1.39-0.499 2.469-0.741 3.235-0.725 0.76 0.015 1.26 0.332 1.501 0.95 0.234 0.618 0.59 2.346 1.067 5.183v0c1.244 7.473 2.182 11.216 2.815 11.229v0c0.2 0.004 0.427-0.168 0.68-0.517 0.26-0.342 0.569-0.759 0.926-1.252 0.357-0.493 0.847-1.347 1.471-2.561 0.625-1.221 0.946-2.295 0.965-3.221v0c0.003-0.167-0.101-0.776-0.313-1.826-0.212-1.051-0.532-2.071-0.959-3.06-0.434-0.989-0.779-1.553-1.036-1.691v0c-0.593-0.345-0.887-0.635-0.883-0.868v0c0.008-0.4 0.697-0.86 2.068-1.379 1.377-0.519 2.613-0.768 3.706-0.746v0c0.5 0.01 0.844 0.314 1.032 0.911v0c0.468 1.576 1.009 4.398 1.62 8.464v0c0.796 5.204 1.577 7.813 2.344 7.829v0c0.26 0.005 0.664-0.363 1.212-1.106 0.548-0.736 1.093-1.812 1.635-3.228 0.549-1.423 0.833-2.64 0.854-3.654 0.02-1.013-0.007-1.794-0.083-2.342-0.069-0.548-0.346-1.194-0.832-1.937-0.485-0.743-1.043-1.178-1.674-1.304-0.624-0.126-0.933-0.339-0.927-0.638v0c0.009-0.467 0.708-1.053 2.095-1.759 1.394-0.699 2.825-1.034 4.291-1.004v0c1.393 0.028 2.062 1.435 2.006 4.221v0c-0.07 3.493-1.172 7.061-3.305 10.706-2.134 3.651-4.684 6.477-7.652 8.478zM123.715-15.297v0l-0.836 6.326c-0.511 4.397-0.341 7.095 0.51 8.092v0c0.117 0.148 0.166 0.305 0.147 0.471v0c-0.058 0.497-1.149 0.622-3.276 0.374-2.132-0.248-3.192-1.008-3.177-2.282v0c0.001-0.295 0.055-0.906 0.162-1.833v0l1.12-7.904c0.027-0.232-0.092-0.363-0.357-0.394v0c-1.583-0.184-3.118 0.091-4.606 0.824-1.494 0.732-2.322 1.791-2.483 3.175v0c-0.085 0.728 0.043 1.361 0.384 1.897 0.34 0.543 0.798 0.848 1.373 0.914 0.576 0.067 1.07 0.007 1.481-0.18 0.404-0.188 0.642-0.295 0.712-0.32v0c0.555 0.132 0.769 0.75 0.64 1.856-0.128 1.106-0.746 1.94-1.851 2.503-1.098 0.557-2.21 0.77-3.337 0.64-1.119-0.13-2.063-0.441-2.831-0.933-0.762-0.491-1.296-1.006-1.602-1.545-0.301-0.532-0.53-1.125-0.689-1.782v0c-0.143-0.788-0.182-1.464-0.117-2.027v0c0.268-2.311 1.208-4.074 2.819-5.29 1.618-1.215 3.6-1.988 5.948-2.319v0c3.069-0.247 4.699-0.612 4.888-1.093v0c0.141-0.346 0.261-0.95 0.362-1.811v0c0.203-1.748-0.586-2.726-2.368-2.932v0c-0.762-0.088-1.465 0.071-2.109 0.479-0.651 0.408-1.019 0.976-1.104 1.704v0l0.159 1.227c-0.131 0.549-0.765 0.807-1.902 0.776v0l-0.552-0.014c-0.987-0.115-1.74-0.45-2.259-1.007-0.525-0.564-0.739-1.26-0.643-2.089v0c0.062-0.53 0.305-1.095 0.731-1.697 0.419-0.602 0.916-1.071 1.492-1.407 0.576-0.336 1.435-0.595 2.577-0.778 1.142-0.183 2.223-0.215 3.243-0.096 1.026 0.119 1.814 0.244 2.362 0.375 0.556 0.125 1.306 0.37 2.25 0.735 0.945 0.358 1.702 0.923 2.27 1.693 0.562 0.77 0.821 1.545 0.777 2.325-0.037 0.781-0.14 1.897-0.308 3.347zM126.965-19.346v0l0.501-1.942c0.086-0.289 0.342-0.396 0.769-0.319v0l1.713 0.308 0.507-3.953 0.036-0.196c0.136-0.755 0.84-1.373 2.112-1.856 1.264-0.477 2.372-0.63 3.323-0.459v0c0.295 0.053 0.42 0.208 0.374 0.464v0l-0.009 0.049c-0.291 0.862-0.831 3.112-1.62 6.75v0c1.437 0.258 2.358 0.39 2.763 0.395 0.405 0.005 0.625 0.011 0.658 0.017v0c0.23 0.041 0.309 0.259 0.238 0.652-0.071 0.394-0.341 0.86-0.81 1.399-0.471 0.545-0.922 0.796-1.355 0.752v0l-2.057-0.37c-0.232 1.103-0.585 2.97-1.058 5.601-0.474 2.638-0.842 4.81-1.101 6.518-0.253 1.709-0.425 3.002-0.515 3.88-0.09 0.878-0.143 1.586-0.159 2.126-0.016 0.539-0.018 0.928-0.007 1.167 0.005 0.238 0.001 0.39-0.011 0.455v0c-0.059 0.328-0.301 0.471-0.727 0.428v0c-1.279-0.23-2.517-0.639-3.711-1.226-1.195-0.587-1.713-1.324-1.554-2.21v0c1.677-5.368 3.083-11.208 4.218-17.52v0c-0.886-0.159-1.56-0.25-2.023-0.273v0l-0.05-0.008c-0.295-0.053-0.444-0.263-0.445-0.629zM141.636-9.492v0l-0.235 1.218c-0.046 0.195 0.061 0.323 0.321 0.384v0c1.061 0.147 2.029 0.094 2.903-0.159 0.881-0.252 1.581-0.607 2.101-1.068v0c1.055-1.019 1.717-1.955 1.986-2.809v0l0.186-0.573c0.411-1.746-0.078-2.782-1.467-3.109v0c-1.038-0.244-1.985 0.009-2.84 0.76v0c-1.407 1.176-2.392 2.961-2.955 5.356zM150.699-0.549v0c-0.289 1.227-0.791 2.242-1.508 3.046-0.723 0.802-1.451 1.35-2.184 1.643-0.732 0.287-1.55 0.461-2.455 0.522v0c-1.141 0.074-2.198-0.003-3.171-0.232v0c-2.713-0.638-4.478-2.129-5.296-4.472-0.812-2.342-0.846-5.092-0.103-8.253 0.742-3.154 2.201-5.773 4.375-7.857 2.18-2.076 4.873-2.737 8.079-1.983v0c2.914 0.686 4.647 2.168 5.199 4.449v0c0.24 0.871 0.278 1.658 0.113 2.359-0.163 0.694-0.325 1.235-0.484 1.622-0.16 0.387-0.529 0.94-1.11 1.66-0.58 0.72-1.267 1.325-2.06 1.816-0.802 0.496-1.969 0.872-3.502 1.129-1.526 0.257-3.249 0.259-5.169 0.006v0c-0.26-0.061-0.416 0.022-0.469 0.249v0c-0.069 0.292-0.066 0.745 0.009 1.358 0.08 0.621 0.204 1.157 0.372 1.608v0c0.495 1.068 1.44 1.767 2.835 2.095v0c1.389 0.327 2.676 0.154 3.862-0.519v0c0.634-0.365 1.193-0.866 1.679-1.506v0c0.191-0.229 0.393-0.318 0.608-0.268 0.208 0.049 0.334 0.267 0.38 0.655 0.046 0.387 0.046 0.679 0 0.873zM170.508-6.062l-1.358 3.548-0.322 1.721c-0.187 0.605-0.85 0.732-1.991 0.38v0c-2.319-0.716-3.208-1.947-2.669-3.693v0c0.128-0.414 0.416-0.953 0.866-1.616 0.441-0.659 0.745-1.26 0.912-1.801 0.167-0.541 0.156-1.058-0.035-1.549-0.197-0.493-0.597-0.833-1.202-1.021-0.605-0.187-1.187-0.133-1.746 0.162-0.559 0.295-0.955 0.651-1.187 1.067v0l-0.398 0.61c-0.494 0.922-1.097 2.536-1.81 4.842-0.71 2.299-1.237 4.118-1.58 5.456-0.344 1.338-0.559 2.262-0.647 2.773-0.09 0.517-0.149 0.823-0.179 0.918v0c-0.244 0.79-0.935 1.278-2.074 1.463-1.134 0.194-2.195 0.138-3.183-0.167-0.981-0.303-1.407-0.661-1.28-1.075v0l0.687-1.41c1.298-2.62 2.633-6.154 4.007-10.6 1.373-4.446 2.147-7.515 2.32-9.205v0c0.116-0.376 0.509-0.46 1.177-0.254v0c1.713 0.529 2.676 1.468 2.887 2.817v0c-0.007 0.137 0.03 0.219 0.113 0.245 0.076 0.024 0.334-0.054 0.773-0.233v0c1.308-0.531 2.679-0.575 4.112-0.132v0c0.885 0.273 1.721 0.72 2.507 1.339v0c1.583 1.291 2.016 3.096 1.3 5.415z" opacity="1" transform="matrix(1,0,0,1,0,0)" fill="#000000" class="wordmark-text-0" data-fill-palette-color="primary" id="text-0"></path></svg></g></svg></g></svg></g></svg></g><g transform="matrix(1,0,0,1,64.87263766370516,0)"><svg viewBox="0 0 62.254724672589674 75.92039594218252" height="75.92039594218252" width="62.254724672589674"><g><svg version="1.1" xmlns="http://www.w3.org/2000/svg" xmlns:xlink="http://www.w3.org/1999/xlink" x="0" y="0" viewBox="0 0 82 100" enable-background="new 0 0 82 100" xml:space="preserve" height="75.92039594218252" width="62.254724672589674" class="icon-icon-0" data-fill-palette-color="accent" id="icon-0"><path d="M69.978 30.022L69.991 30.008 41 0 12.01 30.009 12.023 30.023C4.598 37.446 0 47.696 0 59 0 81.607 18.393 100 41 100S82 81.607 82 59C82 47.696 77.402 37.446 69.978 30.022M21.909 39.909L41 19.8 60.091 39.909 60.083 39.917C64.972 44.807 68 51.557 68 59L67.998 59.101A7.4 7.4 0 0 0 66.5 58.955C64.225 58.955 63.01 59.835 61.938 60.612 60.912 61.356 60.024 62 58.09 62 56.035 62 55.111 61.344 54.043 60.584 52.969 59.82 51.75 58.955 49.5 58.955 47.225 58.955 46.01 59.835 44.938 60.612 43.912 61.356 43.024 62 41.089 62 39.035 62 38.111 61.344 37.042 60.584 35.968 59.82 34.75 58.955 32.5 58.955 30.225 58.955 29.01 59.835 27.938 60.612 26.912 61.356 26.024 62 24.089 62 22.035 62 21.111 61.344 20.042 60.584 18.968 59.82 17.75 58.955 15.5 58.955 14.941 58.955 14.447 59.009 14.002 59.101L14 59C14 51.557 17.028 44.807 21.917 39.917zM41 86C28.885 86 18.609 77.979 15.201 66.969 15.3 66.964 15.394 66.955 15.5 66.955 17.112 66.955 17.894 67.511 18.884 68.214 20.062 69.052 21.396 70 24.089 70 26.672 70 27.969 69.061 29.112 68.231 30.095 67.518 30.872 66.955 32.499 66.955 34.111 66.955 34.893 67.511 35.883 68.214 37.062 69.052 38.396 70 41.089 70 43.672 70 44.968 69.061 46.113 68.231 47.095 67.518 47.873 66.955 49.5 66.955 51.112 66.955 51.895 67.511 52.884 68.214 54.062 69.052 55.396 70 58.09 70 60.673 70 61.969 69.061 63.113 68.231 64.095 67.518 64.873 66.955 66.5 66.955 66.605 66.955 66.699 66.964 66.799 66.969 63.391 77.979 53.115 86 41 86" fill="#000000" data-fill-palette-color="accent"></path></svg></g></svg></g><g></g></svg></g></svg></g></svg></g><defs></defs></svg><rect width="320" height="360" fill="none" stroke="none" visibility="hidden"></rect></g></svg></g></svg>